<svg xmlns="http://www.w3.org/2000/svg" width="1440" height="900" viewBox="0 0 1440 900" role="img" aria-labelledby="title desc">
  <title id="title">Fortify Lab Manager dashboard</title>
  <desc id="desc">Dark read-only dashboard with environment summary, component dependency cards, health evidence, preflight, and recent operations.</desc>
  <rect width="1440" height="900" fill="#07100e"/><circle cx="1300" cy="0" r="420" fill="#12342b"/>
  <rect x="0" y="0" width="1440" height="105" fill="#0b1714" stroke="#294039"/>
  <text x="55" y="34" fill="#60e6b2" font-family="sans-serif" font-size="12" font-weight="700" letter-spacing="3">FORTIFY LAB MANAGER</text>
  <text x="55" y="75" fill="#f2f6f4" font-family="sans-serif" font-size="34" font-weight="700">Lab overview</text>
  <rect x="1080" y="37" width="90" height="28" rx="14" fill="none" stroke="#60e6b2"/><text x="1097" y="56" fill="#60e6b2" font-family="sans-serif" font-size="11" font-weight="700">READ ONLY</text>
  <rect x="1190" y="31" width="85" height="40" rx="7" fill="#203a33"/><text x="1208" y="56" fill="#f2f6f4" font-family="sans-serif" font-size="14">Refresh</text>
  <rect x="1290" y="31" width="90" height="40" rx="7" fill="none" stroke="#294039"/><text x="1307" y="56" fill="#9bada7" font-family="sans-serif" font-size="14">Sign out</text>
  <g font-family="sans-serif">
    <g transform="translate(55 135)"><rect width="315" height="105" rx="12" fill="#101c19" stroke="#294039"/><text x="20" y="27" fill="#9bada7" font-size="14">Environment</text><text x="20" y="60" fill="#60e6b2" font-size="14" font-weight="700">● HEALTHY</text><text x="20" y="87" fill="#9bada7" font-size="12">Checked moments ago</text></g>
    <g transform="translate(390 135)"><rect width="315" height="105" rx="12" fill="#101c19" stroke="#294039"/><text x="20" y="27" fill="#9bada7" font-size="14">Components</text><text x="20" y="64" fill="#f2f6f4" font-size="30" font-weight="700">7</text><text x="20" y="87" fill="#9bada7" font-size="12">7 fully observed</text></g>
    <g transform="translate(725 135)"><rect width="315" height="105" rx="12" fill="#101c19" stroke="#294039"/><text x="20" y="27" fill="#9bada7" font-size="14">Preflight</text><text x="20" y="60" fill="#60e6b2" font-size="14" font-weight="700">● READY</text><text x="20" y="87" fill="#9bada7" font-size="12">0 blockers · 1 warning</text></g>
    <g transform="translate(1060 135)"><rect width="320" height="105" rx="12" fill="#101c19" stroke="#294039"/><text x="20" y="27" fill="#9bada7" font-size="14">Cluster link</text><text x="20" y="60" fill="#60e6b2" font-size="14" font-weight="700">● CONNECTED</text><text x="20" y="87" fill="#9bada7" font-size="12">Read-only observation</text></g>
  </g>
  <rect x="55" y="260" width="1325" height="240" rx="12" fill="#101c19" stroke="#294039"/>
  <text x="77" y="290" fill="#60e6b2" font-family="sans-serif" font-size="11" font-weight="700" letter-spacing="2">SYSTEM MAP</text><text x="77" y="320" fill="#f2f6f4" font-family="sans-serif" font-size="20" font-weight="700">Dependencies and versions</text>
  <g font-family="sans-serif" font-size="13">
    <g transform="translate(77 345)"><rect width="240" height="125" rx="8" fill="#0c1714" stroke="#3a6b5d"/><text x="15" y="28" fill="#f2f6f4" font-weight="700">MySQL</text><text x="167" y="28" fill="#60e6b2" font-size="10">● HEALTHY</text><text x="15" y="58" fill="#9bada7">database: 8.0.36</text><text x="15" y="92" fill="#9bada7">Lab foundation</text></g>
    <g transform="translate(337 345)"><rect width="240" height="125" rx="8" fill="#0c1714" stroke="#3a6b5d"/><text x="15" y="28" fill="#f2f6f4" font-weight="700">SSC</text><text x="167" y="28" fill="#60e6b2" font-size="10">● HEALTHY</text><text x="15" y="58" fill="#9bada7">app: 24.4</text><text x="15" y="92" fill="#9bada7">Depends on: mysql</text></g>
    <g transform="translate(597 345)"><rect width="240" height="125" rx="8" fill="#0c1714" stroke="#3a6b5d"/><text x="15" y="28" fill="#f2f6f4" font-weight="700">ScanCentral SAST</text><text x="167" y="28" fill="#60e6b2" font-size="10">● HEALTHY</text><text x="15" y="58" fill="#9bada7">controller: 24.4</text><text x="15" y="92" fill="#9bada7">Depends on: ssc</text></g>
    <g transform="translate(857 345)"><rect width="240" height="125" rx="8" fill="#0c1714" stroke="#3a6b5d"/><text x="15" y="28" fill="#f2f6f4" font-weight="700">PostgreSQL + LIM</text><text x="167" y="28" fill="#60e6b2" font-size="10">● HEALTHY</text><text x="15" y="58" fill="#9bada7">database and license</text><text x="15" y="92" fill="#9bada7">DAST foundation</text></g>
    <g transform="translate(1117 345)"><rect width="240" height="125" rx="8" fill="#0c1714" stroke="#3a6b5d"/><text x="15" y="28" fill="#f2f6f4" font-weight="700">ScanCentral DAST</text><text x="167" y="28" fill="#60e6b2" font-size="10">● HEALTHY</text><text x="15" y="58" fill="#9bada7">core + scanner</text><text x="15" y="92" fill="#9bada7">Depends on: SSC, LIM</text></g>
  </g>
  <rect x="55" y="520" width="775" height="235" rx="12" fill="#101c19" stroke="#294039"/><text x="77" y="551" fill="#60e6b2" font-family="sans-serif" font-size="11" font-weight="700" letter-spacing="2">ROOT CAUSE</text><text x="77" y="581" fill="#f2f6f4" font-family="sans-serif" font-size="20" font-weight="700">Health evidence</text>
  <rect x="77" y="605" width="730" height="120" rx="8" fill="#0c1714" stroke="#294039"/><text x="95" y="633" fill="#f2f6f4" font-family="sans-serif" font-weight="700">All required checks passed</text><text x="640" y="633" fill="#60e6b2" font-family="sans-serif" font-size="11">● HEALTHY</text><line x1="95" y1="650" x2="790" y2="650" stroke="#294039"/><text x="95" y="681" fill="#60e6b2" font-family="sans-serif" font-size="11">● HEALTHY</text><text x="190" y="681" fill="#cbd7d3" font-family="sans-serif" font-size="13">Authoritative application evidence is fresh</text>
  <rect x="850" y="520" width="530" height="235" rx="12" fill="#101c19" stroke="#294039"/><text x="872" y="551" fill="#60e6b2" font-family="sans-serif" font-size="11" font-weight="700" letter-spacing="2">READINESS</text><text x="872" y="581" fill="#f2f6f4" font-family="sans-serif" font-size="20" font-weight="700">Deployment preflight</text><text x="872" y="635" fill="#60e6b2" font-family="sans-serif" font-size="15">✓ All blocker checks passed</text><text x="872" y="677" fill="#f2c14e" font-family="sans-serif" font-size="12">● DEGRADED</text><text x="978" y="677" fill="#cbd7d3" font-family="sans-serif" font-size="13">Optional capacity warning</text>
  <rect x="55" y="775" width="1325" height="100" rx="12" fill="#101c19" stroke="#294039"/><text x="77" y="806" fill="#60e6b2" font-family="sans-serif" font-size="11" font-weight="700" letter-spacing="2">AUDIT TRAIL</text><text x="77" y="836" fill="#f2f6f4" font-family="sans-serif" font-size="20" font-weight="700">Recent operations</text><text x="340" y="836" fill="#9bada7" font-family="sans-serif" font-size="13">12:00 · Operation · SSC · Observation completed · HEALTHY</text>
</svg>
